<?xml version="1.0" encoding="UTF-8" standalone="no"?>
<!-- Created with Inkscape (http://www.inkscape.org/) -->

<svg
   version="1.1"
   id="svg1"
   width="400"
   height="400"
   viewBox="0 0 400 400"
   sodipodi:docname="banglalink-seeklogo.ai"
   xmlns:inkscape="http://www.inkscape.org/namespaces/inkscape"
   xmlns:sodipodi="http://sodipodi.sourceforge.net/DTD/sodipodi-0.dtd"
   xmlns="http://www.w3.org/2000/svg"
   xmlns:svg="http://www.w3.org/2000/svg">
  <defs
     id="defs1">
    <clipPath
       clipPathUnits="userSpaceOnUse"
       id="clipPath3">
      <path
         d="M 0,300 H 300 V 0 H 0 Z"
         transform="translate(-211.28031,-101.43261)"
         id="path3" />
    </clipPath>
    <clipPath
       clipPathUnits="userSpaceOnUse"
       id="clipPath5">
      <path
         d="M 0,300 H 300 V 0 H 0 Z"
         transform="translate(-86.531702,-61.725602)"
         id="path5" />
    </clipPath>
    <clipPath
       clipPathUnits="userSpaceOnUse"
       id="clipPath7">
      <path
         d="M 0,300 H 300 V 0 H 0 Z"
         transform="translate(-99.6631,-68.916999)"
         id="path7" />
    </clipPath>
    <clipPath
       clipPathUnits="userSpaceOnUse"
       id="clipPath9">
      <path
         d="M 0,300 H 300 V 0 H 0 Z"
         transform="translate(-123.73731,-81.110402)"
         id="path9" />
    </clipPath>
    <clipPath
       clipPathUnits="userSpaceOnUse"
       id="clipPath11">
      <path
         d="M 0,300 H 300 V 0 H 0 Z"
         transform="translate(-136.8687,-65.165004)"
         id="path11" />
    </clipPath>
    <clipPath
       clipPathUnits="userSpaceOnUse"
       id="clipPath13">
      <path
         d="M 0,300 H 300 V 0 H 0 Z"
         id="path13" />
    </clipPath>
    <clipPath
       clipPathUnits="userSpaceOnUse"
       id="clipPath15">
      <path
         d="M 0,300 H 300 V 0 H 0 Z"
         transform="translate(-160.6299,-68.916999)"
         id="path15" />
    </clipPath>
    <clipPath
       clipPathUnits="userSpaceOnUse"
       id="clipPath17">
      <path
         d="M 0,300 H 300 V 0 H 0 Z"
         id="path17" />
    </clipPath>
    <clipPath
       clipPathUnits="userSpaceOnUse"
       id="clipPath19">
      <path
         d="M 0,300 H 300 V 0 H 0 Z"
         id="path19" />
    </clipPath>
    <clipPath
       clipPathUnits="userSpaceOnUse"
       id="clipPath21">
      <path
         d="M 0,300 H 300 V 0 H 0 Z"
         id="path21" />
    </clipPath>
    <clipPath
       clipPathUnits="userSpaceOnUse"
       id="clipPath23">
      <path
         d="M 0,300 H 300 V 0 H 0 Z"
         transform="translate(-194.709,-81.110402)"
         id="path23" />
    </clipPath>
    <clipPath
       clipPathUnits="userSpaceOnUse"
       id="clipPath25">
      <path
         d="M 0,300 H 300 V 0 H 0 Z"
         transform="translate(-212.84281,-72.668904)"
         id="path25" />
    </clipPath>
    <clipPath
       clipPathUnits="userSpaceOnUse"
       id="clipPath27">
      <path
         d="M 0,300 H 300 V 0 H 0 Z"
         transform="translate(-170.3223,-108.93651)"
         id="path27" />
    </clipPath>
    <clipPath
       clipPathUnits="userSpaceOnUse"
       id="clipPath29">
      <path
         d="M 0,300 H 300 V 0 H 0 Z"
         transform="translate(-163.4443,-239.31251)"
         id="path29" />
    </clipPath>
    <clipPath
       clipPathUnits="userSpaceOnUse"
       id="clipPath31">
      <path
         d="M 0,300 H 300 V 0 H 0 Z"
         transform="translate(-103.7275,-109.5615)"
         id="path31" />
    </clipPath>
    <clipPath
       clipPathUnits="userSpaceOnUse"
       id="clipPath33">
      <path
         d="M 0,300 H 300 V 0 H 0 Z"
         transform="translate(-139.68261,-123.94341)"
         id="path33" />
    </clipPath>
    <clipPath
       clipPathUnits="userSpaceOnUse"
       id="clipPath35">
      <path
         d="M 0,300 H 300 V 0 H 0 Z"
         transform="translate(-138.7446,-238.37451)"
         id="path35" />
    </clipPath>
    <clipPath
       clipPathUnits="userSpaceOnUse"
       id="clipPath37">
      <path
         d="M 0,300 H 300 V 0 H 0 Z"
         transform="translate(-214.4062,-145.8291)"
         id="path37" />
    </clipPath>
    <clipPath
       clipPathUnits="userSpaceOnUse"
       id="clipPath39">
      <path
         d="M 0,300 H 300 V 0 H 0 Z"
         transform="translate(-97.4746,-205.54591)"
         id="path39" />
    </clipPath>
    <clipPath
       clipPathUnits="userSpaceOnUse"
       id="clipPath41">
      <path
         d="M 0,300 H 300 V 0 H 0 Z"
         transform="translate(-174.0742,-238.06151)"
         id="path41" />
    </clipPath>
    <clipPath
       clipPathUnits="userSpaceOnUse"
       id="clipPath43">
      <path
         d="M 0,300 H 300 V 0 H 0 Z"
         transform="translate(-85.593805,-228.05661)"
         id="path43" />
    </clipPath>
  </defs>
  <sodipodi:namedview
     id="namedview1"
     pagecolor="#ffffff"
     bordercolor="#000000"
     borderopacity="0.25"
     inkscape:showpageshadow="2"
     inkscape:pageopacity="0.0"
     inkscape:pagecheckerboard="0"
     inkscape:deskcolor="#d1d1d1">
    <inkscape:page
       x="0"
       y="0"
       inkscape:label="1"
       id="page1"
       width="400"
       height="400"
       margin="71.045464 102.86933 70.912003"
       bleed="0" />
  </sodipodi:namedview>
  <g
     id="g1"
     inkscape:groupmode="layer"
     inkscape:label="1">
    <g
       id="group-MC0">
      <path
         id="path2"
         d="m 0,0 h -122.56 c -6.253,0 -11.568,5.002 -11.568,11.568 v 122.247 c 0,6.253 5.002,11.568 11.568,11.568 H 0 c 6.253,0 11.567,-5.002 11.567,-11.568 V 11.256 C 11.567,5.002 6.253,0 0,0"
         style="fill:#f16522;fill-opacity:1;fill-rule:nonzero;stroke:none"
         transform="matrix(1.3333333,0,0,-1.3333333,281.70707,264.75653)"
         clip-path="url(#clipPath3)" />
      <path
         id="path4"
         d="m 0,0 c -2.189,0 -4.064,0.625 -5.315,2.501 -1.251,1.563 -1.876,3.752 -1.876,6.254 0,2.813 0.625,5.002 1.876,6.565 1.251,1.564 3.126,2.189 5.315,2.189 2.188,0 3.751,-0.939 5.002,-2.501 C 6.253,13.132 6.878,11.256 6.878,8.755 6.878,6.253 6.253,4.064 5.002,2.501 3.751,0.625 2.188,0 0,0 m 0,19.385 c -2.189,0 -4.064,-0.626 -5.315,-1.564 -0.625,-0.625 -1.251,-1.251 -1.563,-1.876 v 10.63 H -9.38 V -1.563 h 2.189 V 1.563 C -6.566,0.625 -6.253,0 -5.315,-0.312 -3.752,-1.563 -2.189,-2.188 0,-2.188 c 2.813,0 5.002,0.938 6.565,3.126 1.564,1.876 2.502,4.69 2.502,7.817 0,3.126 -0.938,5.627 -2.189,7.503 C 5.002,18.134 2.813,19.385 0,19.385"
         style="fill:#231f20;fill-opacity:1;fill-rule:nonzero;stroke:none"
         transform="matrix(1.3333333,0,0,-1.3333333,115.3756,317.6992)"
         clip-path="url(#clipPath5)" />
      <path
         id="path6"
         d="m 0,0 c 0.938,0.625 2.188,0.937 4.064,0.937 2.501,0 4.377,0 5.628,0.313 0.625,0 0.938,0.313 1.251,0.313 v -1.875 c 0,-1.876 -0.626,-3.44 -1.876,-4.691 C 7.816,-6.253 5.94,-6.879 3.751,-6.879 1.876,-6.879 0.625,-6.566 0,-5.628 -0.625,-5.003 -1.25,-4.064 -1.25,-2.814 -1.563,-1.876 -0.938,-0.626 0,0 M 12.819,-6.566 V -6.253 5.94 c 0,2.189 -0.626,3.752 -2.189,4.69 -1.251,0.937 -2.814,1.251 -5.003,1.251 -2.501,0 -4.377,-0.626 -5.94,-1.876 C -1.876,8.754 -2.501,6.878 -2.501,5.002 V 4.377 h 2.188 v 0.625 c 0,1.563 0.625,2.814 1.563,3.752 0.938,0.938 2.501,1.251 4.377,1.251 2.189,0 3.44,-0.313 4.065,-1.251 C 10.317,7.816 10.63,6.878 10.63,5.314 10.63,3.752 10.005,3.438 9.379,3.438 8.441,3.126 6.565,2.813 3.751,2.813 1.563,2.813 0,2.501 -1.25,1.563 -2.814,0.625 -3.439,-0.938 -3.439,-3.439 c 0,-1.876 0.625,-3.44 1.876,-4.377 1.25,-0.939 3.126,-1.564 5.002,-1.564 1.876,0 3.752,0.625 5.315,1.564 0.625,0.312 1.251,0.937 1.876,1.563 0,-0.938 0.313,-1.563 0.625,-1.876 0.626,-0.312 1.251,-0.626 2.502,-0.626 h 1.25 v 1.876 h -1.563 c -0.313,0 -0.313,0 -0.625,0.313"
         style="fill:#231f20;fill-opacity:1;fill-rule:nonzero;stroke:none"
         transform="matrix(1.3333333,0,0,-1.3333333,132.88413,308.11067)"
         clip-path="url(#clipPath7)" />
      <path
         id="path8"
         d="M 0,0 C -1.876,0 -3.752,-0.626 -5.002,-1.563 -5.628,-1.876 -5.94,-2.501 -6.253,-2.814 v 2.502 h -2.189 v -20.636 h 2.189 V -9.38 c 0,2.189 0.625,4.065 1.563,5.316 1.251,1.25 2.502,2.188 4.69,2.188 1.563,0 2.814,-0.312 4.064,-1.563 0.938,-0.938 1.563,-2.189 1.563,-4.065 v -13.444 h 1.876 v 13.444 c 0,2.501 -0.625,4.377 -2.188,5.628 C 4.064,-0.626 2.188,0 0,0"
         style="fill:#231f20;fill-opacity:1;fill-rule:nonzero;stroke:none"
         transform="matrix(1.3333333,0,0,-1.3333333,164.98307,291.8528)"
         clip-path="url(#clipPath9)" />
      <path
         id="path10"
         d="m 0,0 c -1.25,1.563 -1.876,3.439 -1.876,5.628 0,2.188 0.626,4.377 1.876,5.627 1.25,1.563 2.814,2.189 5.002,2.189 2.189,0 3.752,-0.626 5.003,-2.189 1.25,-1.563 1.876,-3.439 1.876,-5.627 C 11.881,3.439 11.255,1.563 10.005,0 8.754,-1.563 7.191,-2.188 5.002,-2.188 2.814,-1.876 1.25,-1.251 0,0 m 11.881,12.506 c -0.313,0.625 -0.938,1.251 -1.564,1.563 -1.563,1.251 -3.126,1.564 -5.002,1.564 -2.814,0 -5.003,-0.939 -6.565,-2.815 -1.564,-1.876 -2.189,-4.377 -2.189,-7.19 0,-2.815 0.625,-5.003 2.189,-6.879 1.562,-1.876 3.751,-2.813 6.565,-2.813 1.876,0 3.752,0.625 5.315,1.563 0.625,0.625 1.251,0.938 1.876,1.563 v -2.814 c 0,-2.188 -0.625,-3.752 -1.563,-4.689 -1.251,-0.939 -2.814,-1.564 -5.003,-1.564 -1.876,0 -3.126,0.313 -4.377,1.25 C 0.625,-8.129 0,-6.879 0,-5.315 v 0.626 h -2.188 v -0.626 c 0,-2.189 0.938,-4.065 2.188,-5.002 1.563,-0.939 3.439,-1.564 5.627,-1.564 2.814,0 5.003,0.625 6.254,2.189 1.563,1.563 2.188,3.439 2.188,6.253 v 19.384 h -2.188 z"
         style="fill:#231f20;fill-opacity:1;fill-rule:nonzero;stroke:none"
         transform="matrix(1.3333333,0,0,-1.3333333,182.4916,313.11333)"
         clip-path="url(#clipPath11)" />
      <path
         id="path12"
         d="m 153.439,87.988 h 2.188 V 59.849 h -2.188 z"
         style="fill:#231f20;fill-opacity:1;fill-rule:nonzero;stroke:none"
         transform="matrix(1.3333333,0,0,-1.3333333,0,400)"
         clip-path="url(#clipPath13)" />
      <path
         id="path14"
         d="m 0,0 c 0.938,0.625 2.188,0.937 4.064,0.937 2.502,0 4.378,0 5.628,0.313 0.625,0 0.939,0.313 1.251,0.313 v -1.875 c 0,-1.876 -0.626,-3.44 -1.876,-4.691 -1.251,-1.25 -3.127,-1.876 -5.315,-1.876 -1.876,0 -3.126,0.313 -3.752,1.251 -0.937,0.313 -1.25,0.938 -1.25,2.189 0,1.563 0.313,2.813 1.25,3.439 M 12.819,-6.566 V -6.253 5.94 c 0,2.189 -0.626,3.752 -2.188,4.69 -1.251,0.937 -2.815,1.251 -5.003,1.251 -2.501,0 -4.377,-0.626 -5.94,-1.876 C -1.876,8.754 -2.501,6.878 -2.501,5.002 V 4.377 h 2.189 v 0.625 c 0,1.563 0.624,2.814 1.563,3.752 0.937,0.938 2.501,1.251 4.377,1.251 2.188,0 3.439,-0.313 4.064,-1.251 0.625,-0.938 0.939,-1.876 0.939,-3.44 C 10.631,3.752 10.005,3.438 9.38,3.438 8.442,3.126 6.566,2.813 3.752,2.813 1.563,2.813 0,2.501 -1.25,1.563 -2.813,0.625 -3.438,-1.251 -3.438,-3.439 c 0,-1.876 0.625,-3.44 1.875,-4.377 1.251,-0.939 3.126,-1.564 5.002,-1.564 1.876,0 3.752,0.625 5.316,1.564 0.625,0.312 1.25,0.937 1.876,1.563 0,-0.938 0.312,-1.563 0.625,-1.876 0.625,-0.312 1.251,-0.626 2.501,-0.626 h 1.251 v 1.876 h -1.564 c 0,0 -0.312,0 -0.625,0.313"
         style="fill:#231f20;fill-opacity:1;fill-rule:nonzero;stroke:none"
         transform="matrix(1.3333333,0,0,-1.3333333,214.1732,308.11067)"
         clip-path="url(#clipPath15)" />
      <path
         id="path16"
         d="m 176.575,87.988 h 2.188 V 59.849 h -2.188 z"
         style="fill:#231f20;fill-opacity:1;fill-rule:nonzero;stroke:none"
         transform="matrix(1.3333333,0,0,-1.3333333,0,400)"
         clip-path="url(#clipPath17)" />
      <path
         id="path18"
         d="m 181.266,87.988 h 2.188 v -5.002 h -2.188 z"
         style="fill:#231f20;fill-opacity:1;fill-rule:nonzero;stroke:none"
         transform="matrix(1.3333333,0,0,-1.3333333,0,400)"
         clip-path="url(#clipPath19)" />
      <path
         id="path20"
         d="m 181.266,80.484 h 2.188 V 59.849 h -2.188 z"
         style="fill:#231f20;fill-opacity:1;fill-rule:nonzero;stroke:none"
         transform="matrix(1.3333333,0,0,-1.3333333,0,400)"
         clip-path="url(#clipPath21)" />
      <path
         id="path22"
         d="M 0,0 C -1.876,0 -3.752,-0.626 -5.002,-1.563 -5.628,-1.876 -5.94,-2.501 -6.253,-2.814 v 2.502 h -2.188 v -20.636 h 2.188 V -9.38 c 0,2.189 0.625,4.065 1.564,5.316 1.251,1.25 2.501,2.188 4.689,2.188 1.563,0 2.814,-0.312 4.064,-1.563 0.939,-0.938 1.564,-2.189 1.564,-4.065 v -13.444 h 2.188 v 13.444 c 0,2.501 -0.625,4.377 -2.188,5.628 C 4.064,-0.626 2.188,0 0,0"
         style="fill:#231f20;fill-opacity:1;fill-rule:nonzero;stroke:none"
         transform="matrix(1.3333333,0,0,-1.3333333,259.612,291.8528)"
         clip-path="url(#clipPath23)" />
      <path
         id="path24"
         d="M 0,0 9.692,7.815 6.566,8.129 -5.94,-2.188 v 17.507 h -1.876 v -27.826 h 1.876 v 7.504 l 4.378,3.44 8.753,-10.944 h 2.814 z"
         style="fill:#231f20;fill-opacity:1;fill-rule:nonzero;stroke:none"
         transform="matrix(1.3333333,0,0,-1.3333333,283.7904,303.10813)"
         clip-path="url(#clipPath25)" />
      <path
         id="path26"
         d="m 0,0 c 20.01,23.136 31.266,50.024 36.894,79.726 0.625,3.752 -0.626,7.503 -0.939,11.568 -0.625,0 -1.251,0.313 -1.876,0.313 -1.25,-1.564 -2.501,-3.127 -3.752,-4.69 C 29.702,86.292 29.702,85.354 29.39,84.729 24.387,68.158 17.196,53.15 5.628,39.394 -2.188,30.327 -6.878,18.446 -12.193,7.503 c -4.065,-7.815 -4.065,-8.441 -13.757,-7.191 2.814,6.253 5.315,12.506 8.755,18.134 8.754,14.07 18.446,27.513 27.512,41.583 4.065,6.566 6.879,13.757 10.631,20.323 3.126,5.315 7.503,9.691 10.318,15.007 2.813,5.002 5.002,10.63 6.878,15.945 1.563,4.69 2.501,9.692 3.439,14.695 0.625,0 1.251,-0.313 2.188,-0.313 -0.937,-5.315 -2.188,-10.63 -2.813,-16.258 -0.938,-5.94 -1.251,-12.194 -1.876,-18.134 -0.313,-3.127 -1.251,-6.878 4.064,-8.441 0.938,-0.313 1.563,-4.69 1.25,-6.566 C 40.958,63.468 37.831,50.337 33.142,37.831 30.327,30.327 25.325,23.448 21.261,16.258 19.697,13.757 18.134,11.567 16.884,8.754 11.881,-1.563 11.568,-1.876 0,0"
         style="fill:#000000;fill-opacity:1;fill-rule:nonzero;stroke:none"
         transform="matrix(1.3333333,0,0,-1.3333333,227.0964,254.75133)"
         clip-path="url(#clipPath27)" />
      <path
         id="path28"
         d="m 0,0 c 2.501,-5.628 -0.312,-8.442 -2.502,-11.568 -7.503,-10.318 -15.632,-20.323 -21.885,-31.578 -5.628,-10.005 -10.005,-20.635 -13.757,-31.578 -3.439,-10.63 -8.754,-20.323 -15.32,-29.389 -5.315,-7.192 -10.317,-14.696 -15.633,-21.886 -1.25,-1.876 -2.813,-3.439 -4.064,-5.003 -0.625,0.314 -0.938,0.314 -1.563,0.626 0,2.189 -0.313,4.377 0.312,6.253 2.814,6.878 5.315,14.069 8.755,20.635 5.315,9.692 7.191,19.697 5.627,30.64 -2.188,14.694 -0.312,29.077 3.127,43.146 0.938,4.377 1.251,9.067 1.876,14.382 -10.63,-3.752 -15.008,-12.819 -23.137,-19.697 -0.938,5.94 -1.876,10.005 3.127,14.069 7.191,5.94 13.444,12.819 20.635,18.759 1.876,1.564 4.69,1.876 8.755,3.439 -1.251,-4.689 -1.876,-7.503 -2.502,-10.317 -2.501,-11.881 -5.002,-24.075 -6.878,-35.955 -0.938,-5.628 -0.625,-11.256 -0.313,-16.883 0.313,-8.129 1.251,-16.258 2.189,-25.012 5.628,0.625 8.129,4.376 9.692,9.066 4.377,10.943 8.441,22.199 13.131,33.142 5.941,13.756 12.194,27.2 24.075,37.205 C -3.752,-6.253 -2.502,-3.439 0,0"
         style="fill:#000000;fill-opacity:1;fill-rule:nonzero;stroke:none"
         transform="matrix(1.3333333,0,0,-1.3333333,217.92573,80.916667)"
         clip-path="url(#clipPath29)" />
      <path
         id="path30"
         d="m 0,0 c 1.563,3.127 2.814,5.94 4.377,8.754 6.878,10.631 15.32,20.323 20.948,31.578 9.067,17.509 21.573,32.203 33.453,47.523 1.564,2.189 3.127,4.69 3.44,7.191 1.563,8.755 5.94,15.946 12.193,22.511 3.127,3.44 5.941,6.879 10.318,10.005 -1.564,-2.814 -2.814,-6.253 -5.002,-8.129 C 72.223,112.868 68.783,104.739 66.282,95.359 64.094,87.542 59.404,80.664 55.965,73.161 52.213,65.344 48.461,57.528 45.022,49.712 36.893,32.203 26.575,16.258 11.881,3.439 8.754,0.312 5.627,-2.188 0,0"
         style="fill:#000000;fill-opacity:1;fill-rule:nonzero;stroke:none"
         transform="matrix(1.3333333,0,0,-1.3333333,138.30333,253.918)"
         clip-path="url(#clipPath31)" />
      <path
         id="path32"
         d="m 0,0 c 4.689,7.191 11.881,14.069 14.382,22.198 3.752,12.194 10.317,23.449 12.818,35.017 3.44,17.197 12.82,29.702 23.137,42.521 2.813,3.439 5.002,7.504 7.191,11.881 1.563,3.439 4.065,4.065 6.878,2.814 0.625,-0.313 0.313,-4.377 -0.625,-5.628 C 59.091,101.612 53.464,94.734 48.773,87.23 44.396,80.665 40.957,73.474 37.205,66.282 33.767,60.029 30.327,54.089 27.514,47.523 24.074,40.333 20.635,33.141 18.446,25.325 15.633,13.757 8.754,5.94 0,0"
         style="fill:#000000;fill-opacity:1;fill-rule:nonzero;stroke:none"
         transform="matrix(1.3333333,0,0,-1.3333333,186.24347,234.74213)"
         clip-path="url(#clipPath33)" />
      <path
         id="path34"
         d="m 0,0 c -6.878,-8.442 -10.63,-17.196 -12.506,-27.201 -2.189,-10.943 -6.566,-21.26 -9.692,-31.89 -0.626,0 -0.938,0.312 -1.564,0.312 0.626,3.439 1.251,6.566 1.876,10.005 3.127,13.131 5.941,26.575 9.38,39.394 C -10.318,-0.625 -8.129,0.625 0,0"
         style="fill:#000000;fill-opacity:1;fill-rule:nonzero;stroke:none"
         transform="matrix(1.3333333,0,0,-1.3333333,184.9928,82.167333)"
         clip-path="url(#clipPath35)" />
      <path
         id="path36"
         d="M 0,0 C 3.127,-21.261 -2.501,-36.58 -14.069,-36.893 -9.38,-24.387 -4.689,-12.193 0,0"
         style="fill:#000000;fill-opacity:1;fill-rule:nonzero;stroke:none"
         transform="matrix(1.3333333,0,0,-1.3333333,285.87493,205.5612)"
         clip-path="url(#clipPath37)" />
      <path
         id="path38"
         d="m 0,0 c -0.938,-1.563 -1.876,-3.439 -3.127,-5.002 -5.627,-7.191 -6.878,-15.32 -6.878,-24.387 0,-6.566 -0.313,-13.444 -0.625,-20.01 0,-0.938 -0.626,-1.876 -1.564,-2.814 0.626,18.446 -5.002,37.831 10.631,52.838 C -0.938,0.312 -0.625,0.312 0,0"
         style="fill:#000000;fill-opacity:1;fill-rule:nonzero;stroke:none"
         transform="matrix(1.3333333,0,0,-1.3333333,129.96613,125.9388)"
         clip-path="url(#clipPath39)" />
      <path
         id="path40"
         d="m 0,0 c -5.315,-13.444 -8.129,-28.139 -19.072,-38.144 5.628,12.507 11.568,25.951 17.509,39.082 C -1.251,0.625 -0.625,0.313 0,0"
         style="fill:#000000;fill-opacity:1;fill-rule:nonzero;stroke:none"
         transform="matrix(1.3333333,0,0,-1.3333333,232.09893,82.584667)"
         clip-path="url(#clipPath41)" />
      <path
         id="path42"
         d="M 0,0 C -0.938,8.129 0.625,10.005 6.878,10.318 4.689,7.191 2.501,4.064 0,0"
         style="fill:#000000;fill-opacity:1;fill-rule:nonzero;stroke:none"
         transform="matrix(1.3333333,0,0,-1.3333333,114.12507,95.924533)"
         clip-path="url(#clipPath43)" />
    </g>
  </g>
</svg>
