<?xml version="1.0" encoding="UTF-8"?>
<svg version="1.1" xmlns="http://www.w3.org/2000/svg" width="193" height="193">
<path d="M0 0 C63.69 0 127.38 0 193 0 C193 63.69 193 127.38 193 193 C129.31 193 65.62 193 0 193 C0 129.31 0 65.62 0 0 Z " fill="#203DFE" transform="translate(0,0)"/>
<path d="M0 0 C63.69 0 127.38 0 193 0 C193 63.69 193 127.38 193 193 C129.31 193 65.62 193 0 193 C0 129.31 0 65.62 0 0 Z M75.36328125 30.07055664 C70.64664286 31.37400048 66.14447385 31.27837017 61.2734375 31.2734375 C59.16926539 31.29371385 57.06509875 31.31456437 54.9609375 31.3359375 C51.65815586 31.35859303 48.35559035 31.37503423 45.05273438 31.38085938 C41.85507656 31.39035925 38.65838054 31.4240898 35.4609375 31.4609375 C34.47233734 31.45589203 33.48373718 31.45084656 32.46517944 31.44564819 C31.54387238 31.45891144 30.62256531 31.47217468 29.67333984 31.48583984 C28.86536957 31.48868988 28.05739929 31.49153992 27.22494507 31.49447632 C24.11512234 32.20105063 23.0030746 33.54927391 21 36 C20.40507232 38.62523843 20.40507232 38.62523843 20.49879456 41.54798889 C20.48896042 42.67664871 20.47912628 43.80530853 20.46899414 44.96817017 C20.47866211 46.20207489 20.48833008 47.43597961 20.49829102 48.70727539 C20.49288803 50.01001907 20.48748505 51.31276276 20.48191833 52.65498352 C20.46795847 56.22525161 20.47913613 59.7950381 20.49562955 63.36527944 C20.50947933 67.1008182 20.50302017 70.83632899 20.49949646 74.57188416 C20.4967946 80.84398157 20.51026883 87.11588758 20.53344727 93.38793945 C20.56006857 100.64189456 20.56180041 107.89552989 20.5500589 115.14951712 C20.53928521 122.12596423 20.54546418 129.10229553 20.55961418 136.07873344 C20.56537641 139.04878918 20.56528951 142.01876023 20.56054878 144.98881721 C20.55489669 149.13342882 20.57408306 153.27756145 20.59594727 157.42211914 C20.59144562 158.6580481 20.58694397 159.89397705 20.58230591 161.1673584 C20.59221054 162.29319839 20.60211517 163.41903839 20.61231995 164.57899475 C20.61474984 165.55919618 20.61717974 166.5393976 20.61968327 167.5493021 C20.82943322 170.0108886 20.82943322 170.0108886 22.1849966 171.8150034 C24.68646698 173.44818706 26.44767752 173.37751672 29.42773438 173.38095093 C31.11866211 173.39364014 31.11866211 173.39364014 32.84375 173.40658569 C34.08125 173.400513 35.31875 173.39444031 36.59375 173.38818359 C38.54764648 173.39606903 38.54764648 173.39606903 40.54101562 173.40411377 C44.11539053 173.41780351 47.68950599 173.41248204 51.2638855 173.40297651 C55.00210273 173.39538843 58.74029754 173.40242315 62.47851562 173.40713501 C68.75655105 173.41259506 75.03448064 173.40539446 81.3125 173.39111328 C88.57380911 173.37478622 95.83486553 173.38007455 103.09616852 173.3965925 C109.32724421 173.41020031 115.55824378 173.4121305 121.78932953 173.40427649 C125.51234581 173.39959606 129.23524327 173.39898517 132.95825195 173.40888596 C137.10773722 173.41914981 141.25678591 173.40492979 145.40625 173.38818359 C147.2625 173.39729263 147.2625 173.39729263 149.15625 173.40658569 C150.28353516 173.39812622 151.41082031 173.38966675 152.57226562 173.38095093 C153.55376587 173.37981985 154.53526611 173.37868877 155.54650879 173.37752342 C158.04118816 173.18961303 158.04118816 173.18961303 159.81683636 171.64776897 C161.63601051 169.11424055 161.35656883 166.97125514 161.3371582 163.88647461 C161.33758621 162.62343002 161.33801422 161.36038544 161.3384552 160.05906677 C161.33203318 159.38289244 161.32561115 158.7067181 161.31899452 158.01005363 C161.30054365 155.87484792 161.30331215 153.74061961 161.3120575 151.60536194 C161.33378643 145.53387616 161.32352611 139.46275507 161.28491211 133.39135742 C161.10933918 102.14327503 161.10933918 102.14327503 166.53466797 89.43408203 C172.39965574 75.68917733 174.18096346 56.46960165 170 42 C166.5505129 33.95873664 161.16797203 27.23038793 153.03125 23.71875 C129.03412923 15.40291607 98.45993951 20.69288567 75.36328125 30.07055664 Z " fill="#FFFFFF" transform="translate(0,0)"/>
<path d="M0 0 C-0.78834229 0.25056152 -1.57668457 0.50112305 -2.38891602 0.75927734 C-19.70315792 6.29913128 -36.48515103 12.3318632 -53 20 C-52.34854004 19.80889648 -51.69708008 19.61779297 -51.02587891 19.42089844 C-22.08586902 11.03117291 15.57084699 0.3960288 44 16 C44.74765625 16.39703125 45.4953125 16.7940625 46.265625 17.203125 C56.15703194 23.05722298 61.22177202 31.95920077 64.40625 42.76171875 C65 46 65 46 65 54 C22.76 54 -19.48 54 -63 54 C-63 82.71 -63 111.42 -63 141 C-63.33 141 -63.66 141 -64 141 C-64.09341112 123.59769081 -64.16396329 106.19545978 -64.20724869 88.79295731 C-64.22788041 80.71279778 -64.2560125 72.63279396 -64.30175781 64.55273438 C-64.3416071 57.51074519 -64.36742838 50.46886877 -64.37635398 43.42676997 C-64.38157203 39.69742931 -64.39384851 35.96841123 -64.42292023 32.23917389 C-64.45509962 28.07759751 -64.45596065 23.91658316 -64.45410156 19.75488281 C-64.46848267 18.51626495 -64.48286377 17.27764709 -64.49768066 16.00149536 C-64.49218201 14.86850006 -64.48668335 13.73550476 -64.48101807 12.56817627 C-64.48470524 11.58370136 -64.48839241 10.59922646 -64.49219131 9.58491898 C-63.86043354 6.26701675 -62.60470726 5.08002961 -60 3 C-57.79524231 2.50120544 -57.79524231 2.50120544 -55.37426758 2.50170898 C-54.00683159 2.48665565 -54.00683159 2.48665565 -52.61177063 2.47129822 C-51.63258163 2.47948074 -50.65339264 2.48766327 -49.64453125 2.49609375 C-48.12021736 2.4819619 -48.12021736 2.4819619 -46.56510925 2.46754456 C-43.31403528 2.4388636 -40.06369027 2.43581607 -36.8125 2.4375 C-33.57926827 2.43388206 -30.34657065 2.4242004 -27.1134491 2.39674377 C-25.10335447 2.38007915 -23.09308515 2.37698119 -21.08296204 2.38975525 C-15.54010736 2.34861414 -11.1084258 1.68134543 -5.9719696 -0.45445251 C-3.62475429 -1.10381212 -2.27939636 -0.76807154 0 0 Z " fill="#4A78FE" transform="translate(85,29)"/>
<path d="M0 0 C8.74738967 8.3036815 12.07641613 16.03085228 13 28 C13.30403307 40.60496307 11.26846665 53.37216728 6.79769897 65.17373657 C3.3332496 74.52564811 2.29920223 82.77262381 2.3984375 92.796875 C2.39291856 94.24799788 2.3847772 95.69911287 2.37417603 97.15020752 C2.35158897 100.91705603 2.35540457 104.683317 2.36798096 108.45019531 C2.38650227 114.5187443 2.37634913 120.58696529 2.34212112 126.65543365 C2.33603072 128.76459087 2.34924022 130.87301721 2.36410522 132.9821167 C2.35862167 134.89120819 2.35862167 134.89120819 2.35302734 136.83886719 C2.35700531 137.95944519 2.36098328 139.08002319 2.36508179 140.23455811 C2 143 2 143 0.67707825 144.86378479 C-2.09865962 146.74433842 -4.78099486 146.33329394 -8.07421875 146.29296875 C-8.7580513 146.28872391 -9.44188385 146.28447906 -10.1464386 146.28010559 C-12.32719561 146.26333353 -14.50702309 146.22568657 -16.6875 146.1875 C-18.16730435 146.17245114 -19.6471232 146.15876308 -21.12695312 146.14648438 C-24.75160336 146.11343569 -28.37571094 146.06166446 -32 146 C-31.44769796 142.734796 -30.71072639 140.11426116 -29.125 137.2109375 C-27.00347369 133.12680788 -25.4645384 128.98079498 -24 124.625 C-22.42933519 120.04491975 -20.84965458 115.51387201 -18.9375 111.0625 C-9.65554708 88.20569094 -4.44033114 60.734775 -13 37 C-18.55571085 25.35410485 -27.1480848 19.54076608 -38.8125 14.875 C-39.864375 14.58625 -40.91625 14.2975 -42 14 C-42.67417969 13.814375 -43.34835938 13.62875 -44.04296875 13.4375 C-68.22652715 7.90104148 -94.98078922 13.70804114 -118.16918945 20.80102539 C-119.15363037 21.10000732 -120.13807129 21.39898926 -121.15234375 21.70703125 C-122.01851318 21.9800708 -122.88468262 22.25311035 -123.77709961 22.53442383 C-126 23 -126 23 -129 22 C-116.61728582 16.16897591 -104.1872086 11.04293319 -91.19580078 6.73144531 C-89.18633641 6.0620707 -87.18401538 5.3755328 -85.18359375 4.6796875 C-77.39750874 2 -77.39750874 2 -74 2 C-74 1.34 -74 0.68 -74 0 C-18.89746447 -13.93287634 -18.89746447 -13.93287634 0 0 Z " fill="#010101" transform="translate(159,27)"/>
<path d="M0 0 C39.6 0 79.2 0 120 0 C117.76013514 10.07939189 117.76013514 10.07939189 116.125 13.4375 C114.31501899 17.2979023 112.69919063 21.19797459 111.13525391 25.16381836 C109.90822022 28.22929154 108.64389037 31.27747495 107.37109375 34.32421875 C106.70291626 35.92463013 106.70291626 35.92463013 106.02124023 37.55737305 C105.51572632 38.76647339 105.51572632 38.76647339 105 40 C91.60502395 40.04626156 78.21006679 40.08183768 64.81502724 40.10362434 C58.59573172 40.11407879 52.37649071 40.12826821 46.15722656 40.15087891 C40.15964596 40.17254815 34.1621179 40.1845561 28.16450119 40.18975449 C25.87187243 40.19346091 23.57924667 40.20069821 21.28664017 40.21146011 C18.08507229 40.22589636 14.88372388 40.22798125 11.68212891 40.22705078 C10.72619339 40.23424133 9.77025787 40.24143188 8.78535461 40.24884033 C7.48124382 40.24471634 7.48124382 40.24471634 6.15078735 40.24050903 C5.39307352 40.24235262 4.63535969 40.24419621 3.85468483 40.24609566 C2 40 2 40 0 38 C0 25.46 0 12.92 0 0 Z " fill="#0A24FE" transform="translate(22,133)"/>
<path d="M0 0 C0.33 0 0.66 0 1 0 C1.02714434 2.7084017 1.04690846 5.41652721 1.0625 8.125 C1.07087891 8.88554688 1.07925781 9.64609375 1.08789062 10.4296875 C1.09111328 11.17734375 1.09433594 11.925 1.09765625 12.6953125 C1.10289307 13.37609863 1.10812988 14.05688477 1.11352539 14.75830078 C0.97331406 17.5269469 0.45574591 20.26552451 0 23 C-42.24 23 -84.48 23 -128 23 C-128 16.4 -128 9.8 -128 3 C-85.76 3 -43.52 3 0 3 C0 2.01 0 1.02 0 0 Z " fill="#3257FD" transform="translate(150,80)"/>
<path d="M0 0 C-0.78834229 0.25056152 -1.57668457 0.50112305 -2.38891602 0.75927734 C-19.70315792 6.29913128 -36.48515103 12.3318632 -53 20 C-52.34854004 19.80889648 -51.69708008 19.61779297 -51.02587891 19.42089844 C-22.65229692 11.19538069 13.57574956 0.98891973 41.8984375 14.83203125 C52.30888031 20.61776062 52.30888031 20.61776062 55 26 C16.06 26 -22.88 26 -63 26 C-63 34.91 -63 43.82 -63 53 C-20.76 53 21.48 53 65 53 C65 53.33 65 53.66 65 54 C22.76 54 -19.48 54 -63 54 C-63 82.71 -63 111.42 -63 141 C-63.33 141 -63.66 141 -64 141 C-64.09341112 123.59769081 -64.16396329 106.19545978 -64.20724869 88.79295731 C-64.22788041 80.71279778 -64.2560125 72.63279396 -64.30175781 64.55273438 C-64.3416071 57.51074519 -64.36742838 50.46886877 -64.37635398 43.42676997 C-64.38157203 39.69742931 -64.39384851 35.96841123 -64.42292023 32.23917389 C-64.45509962 28.07759751 -64.45596065 23.91658316 -64.45410156 19.75488281 C-64.46848267 18.51626495 -64.48286377 17.27764709 -64.49768066 16.00149536 C-64.49218201 14.86850006 -64.48668335 13.73550476 -64.48101807 12.56817627 C-64.48470524 11.58370136 -64.48839241 10.59922646 -64.49219131 9.58491898 C-63.86043354 6.26701675 -62.60470726 5.08002961 -60 3 C-57.79524231 2.50120544 -57.79524231 2.50120544 -55.37426758 2.50170898 C-54.00683159 2.48665565 -54.00683159 2.48665565 -52.61177063 2.47129822 C-51.63258163 2.47948074 -50.65339264 2.48766327 -49.64453125 2.49609375 C-48.12021736 2.4819619 -48.12021736 2.4819619 -46.56510925 2.46754456 C-43.31403528 2.4388636 -40.06369027 2.43581607 -36.8125 2.4375 C-33.57926827 2.43388206 -30.34657065 2.4242004 -27.1134491 2.39674377 C-25.10335447 2.38007915 -23.09308515 2.37698119 -21.08296204 2.38975525 C-15.54010736 2.34861414 -11.1084258 1.68134543 -5.9719696 -0.45445251 C-3.62475429 -1.10381212 -2.27939636 -0.76807154 0 0 Z " fill="#5D91FA" transform="translate(85,29)"/>
<path d="M0 0 C41.58 0 83.16 0 126 0 C128 6 128 6 128 13 C85.76 13 43.52 13 0 13 C0 8.71 0 4.42 0 0 Z " fill="#426DFE" transform="translate(22,69)"/>
<path d="M0 0 C8.74738967 8.3036815 12.07641613 16.03085228 13 28 C13.30403307 40.60496307 11.26846665 53.37216728 6.79769897 65.17373657 C3.3332496 74.52564811 2.29920223 82.77262381 2.3984375 92.796875 C2.39291856 94.24799788 2.3847772 95.69911287 2.37417603 97.15020752 C2.35158897 100.91705603 2.35540457 104.683317 2.36798096 108.45019531 C2.38650227 114.5187443 2.37634913 120.58696529 2.34212112 126.65543365 C2.33603072 128.76459087 2.34924022 130.87301721 2.36410522 132.9821167 C2.35862167 134.89120819 2.35862167 134.89120819 2.35302734 136.83886719 C2.35700531 137.95944519 2.36098328 139.08002319 2.36508179 140.23455811 C2 143 2 143 0.67134094 144.86378479 C-2.05245175 146.7154804 -4.61599237 146.33397478 -7.85546875 146.29296875 C-8.51710526 146.28872391 -9.17874176 146.28447906 -9.86042786 146.28010559 C-11.9698691 146.26333693 -14.07834846 146.22569099 -16.1875 146.1875 C-17.61912681 146.17245068 -19.05076862 146.1587627 -20.48242188 146.14648438 C-23.98859288 146.1134403 -27.49420254 146.06167167 -31 146 C-29.82162502 142.3958128 -28.61814249 138.99507549 -26.875 135.625 C-26.52179688 134.93664062 -26.16859375 134.24828125 -25.8046875 133.5390625 C-25.53914063 133.03117188 -25.27359375 132.52328125 -25 132 C-24.34 132 -23.68 132 -23 132 C-22.89220215 131.29109619 -22.7844043 130.58219238 -22.67333984 129.85180664 C-21.92572101 126.68540503 -20.74473166 124.24738556 -19.2265625 121.37109375 C-18.65421875 120.26781738 -18.081875 119.16454102 -17.4921875 118.02783203 C-17.18764648 117.44374573 -16.88310547 116.85965942 -16.56933594 116.25787354 C-1.74916025 87.68937949 16.68758028 50.50035412 9.1640625 17.3125 C6.26639775 9.68911356 1.76274965 3.52491983 -5.52734375 -0.33984375 C-23.26045183 -7.8330819 -44.36820331 -4.31984583 -62.58154297 -0.45751953 C-66.369837 0.2591434 -70.16335217 0.63220833 -74 1 C-55.4804032 -8.77529233 -17.89334728 -13.19255266 0 0 Z " fill="#051FFC" transform="translate(159,27)"/>
<path d="M0 0 C41.91 0 83.82 0 127 0 C126.67 3.96 126.34 7.92 126 12 C125.505 11.01 125.505 11.01 125 10 C83.75 10 42.5 10 0 10 C0 6.7 0 3.4 0 0 Z " fill="#2646FE" transform="translate(22,103)"/>
<path d="M0 0 C-0.78834229 0.25056152 -1.57668457 0.50112305 -2.38891602 0.75927734 C-18.92703073 6.05080211 -35.00870965 11.72015945 -50.79711914 19.01367188 C-55.0698198 20.92675075 -58.25548948 22.27111489 -63 22 C-63 22.99 -63 23.98 -63 25 C-24.06 25 14.88 25 55 25 C55 25.33 55 25.66 55 26 C16.06 26 -22.88 26 -63 26 C-63 34.91 -63 43.82 -63 53 C-20.76 53 21.48 53 65 53 C65 53.33 65 53.66 65 54 C22.76 54 -19.48 54 -63 54 C-63 82.71 -63 111.42 -63 141 C-63.33 141 -63.66 141 -64 141 C-64.09341112 123.59769081 -64.16396329 106.19545978 -64.20724869 88.79295731 C-64.22788041 80.71279778 -64.2560125 72.63279396 -64.30175781 64.55273438 C-64.3416071 57.51074519 -64.36742838 50.46886877 -64.37635398 43.42676997 C-64.38157203 39.69742931 -64.39384851 35.96841123 -64.42292023 32.23917389 C-64.45509962 28.07759751 -64.45596065 23.91658316 -64.45410156 19.75488281 C-64.46848267 18.51626495 -64.48286377 17.27764709 -64.49768066 16.00149536 C-64.49218201 14.86850006 -64.48668335 13.73550476 -64.48101807 12.56817627 C-64.48470524 11.58370136 -64.48839241 10.59922646 -64.49219131 9.58491898 C-63.86043354 6.26701675 -62.60470726 5.08002961 -60 3 C-57.79524231 2.50120544 -57.79524231 2.50120544 -55.37426758 2.50170898 C-54.00683159 2.48665565 -54.00683159 2.48665565 -52.61177063 2.47129822 C-51.63258163 2.47948074 -50.65339264 2.48766327 -49.64453125 2.49609375 C-48.12021736 2.4819619 -48.12021736 2.4819619 -46.56510925 2.46754456 C-43.31403528 2.4388636 -40.06369027 2.43581607 -36.8125 2.4375 C-33.57926827 2.43388206 -30.34657065 2.4242004 -27.1134491 2.39674377 C-25.10335447 2.38007915 -23.09308515 2.37698119 -21.08296204 2.38975525 C-15.54010736 2.34861414 -11.1084258 1.68134543 -5.9719696 -0.45445251 C-3.62475429 -1.10381212 -2.27939636 -0.76807154 0 0 Z " fill="#6A94FD" transform="translate(85,29)"/>
<path d="M0 0 C15.46379634 -0.09339065 30.92757162 -0.16395328 46.39158344 -0.20724869 C53.57161695 -0.22788478 60.75147536 -0.25602505 67.93139648 -0.30175781 C74.18853644 -0.34159393 80.44554961 -0.3674252 86.70281285 -0.37635398 C90.01688791 -0.38157436 93.33051505 -0.39595287 96.64449501 -0.42292023 C100.34175038 -0.45181876 104.03824618 -0.45596154 107.7355957 -0.45410156 C109.38852379 -0.47567322 109.38852379 -0.47567322 111.07484436 -0.49768066 C112.08025269 -0.49218201 113.08566101 -0.48668335 114.12153625 -0.48101807 C114.9963178 -0.48470524 115.87109934 -0.48839241 116.77238941 -0.49219131 C119 0 119 0 120.80490398 1.90506363 C122 4 122 4 122 6 C81.74 6 41.48 6 0 6 C0 4.02 0 2.04 0 0 Z " fill="#5282FE" transform="translate(22,55)"/>
<path d="M0 0 C41.91 0 83.82 0 127 0 C127.495 2.475 127.495 2.475 128 5 C85.76 5 43.52 5 0 5 C0 3.35 0 1.7 0 0 Z " fill="#3963FF" transform="translate(22,77)"/>
<path d="M0 0 C39.6 0 79.2 0 120 0 C119.67 0.99 119.34 1.98 119 3 C116.69 2.67 114.38 2.34 112 2 C112 3.32 112 4.64 112 6 C109.36 6 106.72 6 104 6 C104 14.58 104 23.16 104 32 C102.68 32.33 101.36 32.66 100 33 C99 32 99 32 98.88647461 29.40795898 C98.89432983 27.71908569 98.89432983 27.71908569 98.90234375 25.99609375 C98.90717773 24.17368164 98.90717773 24.17368164 98.91210938 22.31445312 C98.92467773 20.39536133 98.92467773 20.39536133 98.9375 18.4375 C98.94201172 17.15423828 98.94652344 15.87097656 98.95117188 14.54882812 C98.96300455 11.36583978 98.97948932 8.18294238 99 5 C100.65 5 102.3 5 104 5 C103.505 4.01 103.505 4.01 103 3 C69.01 2.67 35.02 2.34 0 2 C0 1.34 0 0.68 0 0 Z " fill="#1A34FE" transform="translate(22,133)"/>
<path d="M0 0 C1.65 0 3.3 0 5 0 C5 0.99 5 1.98 5 3 C7.31 3 9.62 3 12 3 C12.67305018 4.60149886 13.33822227 6.20631029 14 7.8125 C14.37125 8.70582031 14.7425 9.59914062 15.125 10.51953125 C16 13 16 13 16 16 C16.66 16 17.32 16 18 16 C18.103125 15.13375 18.20625 14.2675 18.3125 13.375 C19.03398414 9.83316877 20.27123261 7.15687958 22 4 C22.99 4 23.98 4 25 4 C24.40414792 9.7693614 22.23012403 14.61661536 19.9375 19.875 C19.56044922 20.75414062 19.18339844 21.63328125 18.79492188 22.5390625 C17.86913928 24.69531564 16.93738089 26.84876979 16 29 C14.68 28.67 13.36 28.34 12 28 C12.350625 27.443125 12.70125 26.88625 13.0625 26.3125 C14.8117397 21.99770874 12.6271101 17.49426883 11.1875 13.25 C10.87167969 12.28578125 10.55585937 11.3215625 10.23046875 10.328125 C9.82441406 9.55984375 9.41835937 8.7915625 9 8 C7.68 7.67 6.36 7.34 5 7 C5.33 10.96 5.66 14.92 6 19 C6.99 19.33 7.98 19.66 9 20 C9 20.99 9 21.98 9 23 C5.625 22.75 5.625 22.75 2 22 C-0.26594656 18.86253553 -0.21498149 16.02922246 -0.125 12.25 C-0.10695313 11.26515625 -0.08890625 10.2803125 -0.0703125 9.265625 C-0.04710937 8.51796875 -0.02390625 7.7703125 0 7 C-0.66 7 -1.32 7 -2 7 C-2 11.95 -2 16.9 -2 22 C-3.32 22.33 -4.64 22.66 -6 23 C-7 22 -7 22 -7.11352539 20.14233398 C-7.10828857 19.35157471 -7.10305176 18.56081543 -7.09765625 17.74609375 C-7.09443359 16.89208984 -7.09121094 16.03808594 -7.08789062 15.15820312 C-7.07951172 14.26037109 -7.07113281 13.36253906 -7.0625 12.4375 C-7.05798828 11.53580078 -7.05347656 10.63410156 -7.04882812 9.70507812 C-7.03700225 7.46998686 -7.0205222 5.23502563 -7 3 C-4.69 3 -2.38 3 0 3 C0 2.01 0 1.02 0 0 Z " fill="#EBEDFF" transform="translate(57,143)"/>
<path d="M0 0 C41.91 0 83.82 0 127 0 C127 0.99 127 1.98 127 3 C85.09 3 43.18 3 0 3 C0 2.01 0 1.02 0 0 Z " fill="#2649FF" transform="translate(22,99)"/>
<path d="M0 0 C40.59 0 81.18 0 123 0 C123 0.99 123 1.98 123 3 C82.41 3 41.82 3 0 3 C0 2.01 0 1.02 0 0 Z " fill="#1836FF" transform="translate(22,121)"/>
<path d="M0 0 C-0.33 0.66 -0.66 1.32 -1 2 C-24.1 2 -47.2 2 -71 2 C-71 1.34 -71 0.68 -71 0 C-67.68863914 -0.65176423 -64.37572755 -1.29529828 -61.0625 -1.9375 C-60.13630859 -2.11990234 -59.21011719 -2.30230469 -58.25585938 -2.49023438 C-39.20156223 -6.16737944 -18.24980482 -7.70175249 0 0 Z " fill="#6599F8" transform="translate(125,43)"/>
<path d="M0 0 C39.93 0 79.86 0 121 0 C121 0.99 121 1.98 121 3 C81.07 3 41.14 3 0 3 C0 2.01 0 1.02 0 0 Z " fill="#1532FF" transform="translate(22,127)"/>
<path d="M0 0 C0.92809479 -0.0071553 1.85618958 -0.01431061 2.81240845 -0.02168274 C3.81830017 -0.02437164 4.82419189 -0.02706055 5.86056519 -0.02983093 C6.9293692 -0.03640213 7.99817322 -0.04297333 9.09936523 -0.04974365 C12.62897819 -0.06942433 16.15854885 -0.08112327 19.6882019 -0.09111023 C21.49607996 -0.09722352 21.49607996 -0.09722352 23.3404808 -0.10346031 C29.71110614 -0.12429162 36.08171007 -0.13861006 42.45236206 -0.147995 C49.04469197 -0.15909594 55.63668773 -0.19354671 62.228899 -0.23316669 C67.29024913 -0.25923849 72.35151815 -0.26767807 77.41292953 -0.27127647 C79.84430084 -0.27616134 82.27566809 -0.28782882 84.70697403 -0.30631447 C88.09959243 -0.33052048 91.49132538 -0.32977548 94.88400269 -0.32279968 C95.89394287 -0.33560974 96.90388306 -0.3484198 97.94442749 -0.36161804 C99.3281102 -0.35120232 99.3281102 -0.35120232 100.73974609 -0.34057617 C101.54166445 -0.34296453 102.3435828 -0.34535288 103.16980171 -0.34781361 C105.2428894 0.14717102 105.2428894 0.14717102 108.2428894 4.14717102 C69.3028894 4.14717102 30.3628894 4.14717102 -9.7571106 4.14717102 C-9.7571106 3.15717102 -9.7571106 2.16717102 -9.7571106 1.14717102 C-6.45164919 0.41064733 -3.38428335 0.01801815 0 0 Z " fill="#598AFC" transform="translate(31.757110595703125,49.85282897949219)"/>
<path d="M0 0 C8.74738967 8.3036815 12.07641613 16.03085228 13 28 C13.40085278 44.61902906 9.3257286 61.68054842 3 77 C2.01 77.495 2.01 77.495 1 78 C1.39514937 76.54148119 1.79120057 75.08320674 2.1875 73.625 C2.45691406 72.63113281 2.72632813 71.63726562 3.00390625 70.61328125 C3.74689282 67.9181339 4.50505816 65.22970066 5.27734375 62.54296875 C5.49946533 61.7629248 5.72158691 60.98288086 5.95043945 60.17919922 C6.39088193 58.63390448 6.83583384 57.08988591 7.28588867 55.54736328 C11.10148749 42.09118618 13.07026654 24.30531853 6.60546875 11.484375 C1.05402664 2.89382224 -5.69044101 -1.38535115 -15.6171875 -3.578125 C-31.52278856 -5.56173345 -47.01571762 -3.75841315 -62.58154297 -0.45751953 C-66.369837 0.2591434 -70.16335217 0.63220833 -74 1 C-55.4804032 -8.77529233 -17.89334728 -13.19255266 0 0 Z " fill="#587FCB" transform="translate(159,27)"/>
<path d="M0 0 C0.33 0 0.66 0 1 0 C1 9.9 1 19.8 1 30 C-2.96 30.33 -6.92 30.66 -11 31 C-11.99 31.66 -12.98 32.32 -14 33 C-12.73817444 29.07984217 -11.3346553 25.29727418 -9.6875 21.5234375 C-9.25179687 20.523125 -8.81609375 19.5228125 -8.3671875 18.4921875 C-7.91601562 17.46351562 -7.46484375 16.43484375 -7 15.375 C-6.54882812 14.33859375 -6.09765625 13.3021875 -5.6328125 12.234375 C-1.99679707 3.90811481 -1.99679707 3.90811481 0 0 Z " fill="#1C36F8" transform="translate(160,105)"/>
<path d="M0 0 C2 1.625 2 1.625 3 4 C3.1875 7.25 3.1875 7.25 3 10 C-0.63 10 -4.26 10 -8 10 C-7.67 11.65 -7.34 13.3 -7 15 C-3.7 15 -0.4 15 3 15 C3 15.99 3 16.98 3 18 C-0.19233485 19.59616743 -3.53461497 19.51466114 -7 19 C-9.43119623 17.12984906 -10.64069173 15.71861655 -12 13 C-12.50114443 8.74438005 -12.69712018 5.19091365 -10.5 1.4375 C-6.70416736 -0.74510377 -4.35503854 -0.55302077 0 0 Z " fill="#E4E7FF" transform="translate(109,147)"/>
<path d="M0 0 C0.99386719 0.10183594 1.98773438 0.20367187 3.01171875 0.30859375 C3.77097656 0.39238281 4.53023437 0.47617188 5.3125 0.5625 C5.3125 1.8825 5.3125 3.2025 5.3125 4.5625 C4.48105469 4.51609375 3.64960937 4.4696875 2.79296875 4.421875 C1.70628906 4.38578125 0.61960937 4.3496875 -0.5 4.3125 C-1.57894531 4.26609375 -2.65789063 4.2196875 -3.76953125 4.171875 C-6.74179271 4.28852475 -6.74179271 4.28852475 -8.55859375 6.26171875 C-9.87013606 8.93472367 -10.02690171 10.66133334 -9.9375 13.625 C-9.92203125 14.48222656 -9.9065625 15.33945313 -9.890625 16.22265625 C-9.76570224 18.71621825 -9.76570224 18.71621825 -8.6875 21.5625 C-3.66310615 23.23729795 1.21335558 22.79865622 6.3125 21.5625 C5.9375 23.5 5.9375 23.5 5.3125 25.5625 C1.34966439 27.54391781 -3.37960238 27.12070645 -7.6875 26.5625 C-10.86602316 24.91801311 -13.06551764 22.80646473 -14.6875 19.5625 C-15.27323029 14.67647136 -15.82619133 9.69574451 -13.453125 5.25 C-9.34101625 0.36432623 -6.39565131 -0.67718661 0 0 Z " fill="#E6E9FF" transform="translate(42.6875,139.4375)"/>
<path d="M0 0 C5.75 -0.125 5.75 -0.125 8 1 C7.67 2.32 7.34 3.64 7 5 C5.02 5 3.04 5 1 5 C1 13.58 1 22.16 1 31 C-0.32 31.33 -1.64 31.66 -3 32 C-4 31 -4 31 -4.11352539 28.40795898 C-4.10828857 27.28204346 -4.10305176 26.15612793 -4.09765625 24.99609375 C-4.09443359 23.78115234 -4.09121094 22.56621094 -4.08789062 21.31445312 C-4.07951172 20.03505859 -4.07113281 18.75566406 -4.0625 17.4375 C-4.05798828 16.15423828 -4.05347656 14.87097656 -4.04882812 13.54882812 C-4.03699545 10.36583978 -4.02051068 7.18294238 -4 4 C-2.35 4 -0.7 4 1 4 C0.67 2.68 0.34 1.36 0 0 Z " fill="#485CFF" transform="translate(125,134)"/>
<path d="M0 0 C0 0.33 0 0.66 0 1 C-18.81 1 -37.62 1 -57 1 C-57 0.67 -57 0.34 -57 0 C-37.93779846 -3.27448861 -18.86793105 -5.4092362 0 0 Z " fill="#5F8DDC" transform="translate(120,41)"/>
<path d="M0 0 C-14.33314023 5.57405716 -26.90009828 6.77660213 -42.1875 6.375 C-44.22066274 6.3448021 -46.2538697 6.31744399 -48.28710938 6.29296875 C-53.192531 6.22789081 -58.09575305 6.12493672 -63 6 C-61.36879208 4.02330836 -60.47828131 3.08685457 -57.91549683 2.62145996 C-57.11435455 2.61940552 -56.31321228 2.61735107 -55.48779297 2.61523438 C-54.12024368 2.60006775 -54.12024368 2.60006775 -52.72506714 2.58459473 C-51.74071686 2.58761597 -50.75636658 2.59063721 -49.7421875 2.59375 C-48.72456329 2.58291382 -47.70693909 2.57207764 -46.65847778 2.56091309 C-43.39725451 2.52659132 -40.13638021 2.51105716 -36.875 2.5 C-32.60122971 2.48536816 -28.32823127 2.45150161 -24.0546875 2.40625 C-23.0824826 2.40927124 -22.11027771 2.41229248 -21.10861206 2.41540527 C-15.56234517 2.35514521 -11.11079582 1.68022665 -5.97073364 -0.45568848 C-3.62453203 -1.10370328 -2.27825729 -0.76744819 0 0 Z " fill="#6FA7F6" transform="translate(85,29)"/>
<path d="M0 0 C1.65 0 3.3 0 5 0 C5 0.99 5 1.98 5 3 C7.31 3 9.62 3 12 3 C12 3.33 12 3.66 12 4 C9.36 4 6.72 4 4 4 C4 3.01 4 2.02 4 1 C3.01 1 2.02 1 1 1 C1 1.99 1 2.98 1 4 C0.34 4 -0.32 4 -1 4 C-1 4.66 -1 5.32 -1 6 C-0.34 6 0.32 6 1 6 C1 9.96 1 13.92 1 18 C0.67 18 0.34 18 0 18 C0 14.37 0 10.74 0 7 C-0.66 7 -1.32 7 -2 7 C-2 11.95 -2 16.9 -2 22 C-3.32 22.33 -4.64 22.66 -6 23 C-7 22 -7 22 -7.11352539 20.14233398 C-7.10828857 19.35157471 -7.10305176 18.56081543 -7.09765625 17.74609375 C-7.09443359 16.89208984 -7.09121094 16.03808594 -7.08789062 15.15820312 C-7.07951172 14.26037109 -7.07113281 13.36253906 -7.0625 12.4375 C-7.05798828 11.53580078 -7.05347656 10.63410156 -7.04882812 9.70507812 C-7.03700225 7.46998686 -7.0205222 5.23502563 -7 3 C-4.69 3 -2.38 3 0 3 C0 2.01 0 1.02 0 0 Z " fill="#6071FF" transform="translate(57,143)"/>
<path d="M0 0 C-0.99 0.495 -0.99 0.495 -2 1 C34.63 1 71.26 1 109 1 C109.495 1.99 109.495 1.99 110 3 C71.06 3 32.12 3 -8 3 C-8 2.01 -8 1.02 -8 0 C-4.71303767 -0.79953138 -3.28976808 -1.09658936 0 0 Z " fill="#4B7DF1" transform="translate(30,51)"/>
<path d="M0 0 C-0.33 0.99 -0.66 1.98 -1 3 C-1.94875 2.938125 -2.8975 2.87625 -3.875 2.8125 C-5.421875 2.9053125 -5.421875 2.9053125 -7 3 C-9.31332486 6.46998729 -9.33957563 7.92509248 -9 12 C-8.01 13.485 -8.01 13.485 -7 15 C-3.41642759 15.25015873 -3.41642759 15.25015873 0 15 C0 15.99 0 16.98 0 18 C-3.09173752 19.54586876 -5.59429552 19.29359521 -9 19 C-11.36497439 17.13291495 -12.66030715 15.67938569 -14 13 C-14.36104805 8.59521377 -14.46851135 6.02220658 -12.625 2 C-8.65400033 -1.02552356 -4.8219397 -0.41409788 0 0 Z " fill="#F1F2FF" transform="translate(96,147)"/>
<path d="M0 0 C1.32 0 2.64 0 4 0 C4 9.24 4 18.48 4 28 C2.68 27.67 1.36 27.34 0 27 C0 18.09 0 9.18 0 0 Z " fill="#DBDFFF" transform="translate(114,138)"/>
<path d="M0 0 C6.93 0 13.86 0 21 0 C18.42280758 2.57719242 15.4839862 3.7117372 12.1875 5.125 C11.57068359 5.40214844 10.95386719 5.67929687 10.31835938 5.96484375 C6.7415809 7.50806592 3.89907162 8.34163294 0 8 C0 5.36 0 2.72 0 0 Z " fill="#6095F7" transform="translate(22,43)"/>
<path d="M0 0 C0.33 0 0.66 0 1 0 C1 6.6 1 13.2 1 20 C-1.97 20 -4.94 20 -8 20 C-5.83836487 13.06001352 -3.1063786 6.56882431 0 0 Z " fill="#243EF4" transform="translate(160,105)"/>
<path d="M0 0 C0.99 0 1.98 0 3 0 C3 8.91 3 17.82 3 27 C2.01 27 1.02 27 0 27 C0 18.09 0 9.18 0 0 Z " fill="#FAFBFF" transform="translate(122,139)"/>
<path d="M0 0 C0.99 0 1.98 0 3 0 C3 6.27 3 12.54 3 19 C2.01 19 1.02 19 0 19 C0 12.73 0 6.46 0 0 Z " fill="#F8F9FF" transform="translate(51,147)"/>
<path d="M0 0 C0.33 0 0.66 0 1 0 C1 3.96 1 7.92 1 12 C-0.98 12.33 -2.96 12.66 -5 13 C-4.54554036 11.58208592 -4.08625056 10.16571954 -3.625 8.75 C-3.24214844 7.56664063 -3.24214844 7.56664063 -2.8515625 6.359375 C-2.04826333 4.13372042 -1.10288338 2.09068328 0 0 Z " fill="#2642ED" transform="translate(160,105)"/>
<path d="M0 0 C3.96 0 7.92 0 12 0 C7.32958611 3.50281042 5.58600962 3.5344992 0 4 C0 2.68 0 1.36 0 0 Z " fill="#5B8BEF" transform="translate(22,47)"/>
<path d="M0 0 C0.33 1.32 0.66 2.64 1 4 C0.34 4 -0.32 4 -1 4 C-1.2475 4.825 -1.495 5.65 -1.75 6.5 C-3.18704811 10.52373471 -5.02354515 14.21979024 -7 18 C-8 15 -8 15 -7.0390625 12.66015625 C-6.33910156 11.37431641 -6.33910156 11.37431641 -5.625 10.0625 C-3.70409361 6.5355833 -3.70409361 6.5355833 -2.4609375 2.74609375 C-2.30882812 2.16988281 -2.15671875 1.59367188 -2 1 C-1.34 0.67 -0.68 0.34 0 0 Z " fill="#1E213D" transform="translate(135,155)"/>
<path d="M0 0 C2.0625 0.4375 2.0625 0.4375 4 1 C4.33 2.32 4.66 3.64 5 5 C2.69 5 0.38 5 -2 5 C-1.125 1.125 -1.125 1.125 0 0 Z " fill="#0C25FF" transform="translate(103,149)"/>
<path d="M0 0 C5.75 -0.125 5.75 -0.125 8 1 C7.67 2.32 7.34 3.64 7 5 C5.02 5 3.04 5 1 5 C0.67 3.35 0.34 1.7 0 0 Z " fill="#A8B2FF" transform="translate(125,134)"/>
<path d="M0 0 C0.66 0.33 1.32 0.66 2 1 C2 1.66 2 2.32 2 3 C0.39935157 3.53154742 -1.20568874 4.04988353 -2.8125 4.5625 C-3.70582031 4.85253906 -4.59914063 5.14257812 -5.51953125 5.44140625 C-8 6 -8 6 -11 5 C-9.21289414 4.13633178 -7.4201535 3.28431406 -5.625 2.4375 C-4.62726562 1.96183594 -3.62953125 1.48617187 -2.6015625 0.99609375 C-1.74304687 0.66738281 -0.88453125 0.33867188 0 0 Z " fill="#070808" transform="translate(41,44)"/>
<path d="M0 0 C0.33 0 0.66 0 1 0 C1 2.64 1 5.28 1 8 C-0.32 8 -1.64 8 -3 8 C-1.125 1.125 -1.125 1.125 0 0 Z " fill="#2E48DF" transform="translate(160,105)"/>
<path d="M0 0 C1.65 0 3.3 0 5 0 C5 0.99 5 1.98 5 3 C3.02 3 1.04 3 -1 3 C-0.67 2.01 -0.34 1.02 0 0 Z " fill="#1B39FF" transform="translate(156,117)"/>
</svg>
